<mxfile host="app.diagrams.net" agent="Mozilla/5.0 (Windows NT 10.0; Win64; x64) AppleWebKit/537.36 (KHTML, like Gecko) Chrome/134.0.0.0 Safari/537.36" version="26.1.3">
  <diagram name="第 1 页" id="aKZ75XeRfXhUJ00kCbne">
    <mxGraphModel dx="1130" dy="561" grid="1" gridSize="10" guides="1" tooltips="1" connect="1" arrows="1" fold="1" page="1" pageScale="1" pageWidth="827" pageHeight="1169" math="0" shadow="0">
      <root>
        <mxCell id="0" />
        <mxCell id="1" parent="0" />
        <mxCell id="PtZ4-gDanL53ifQMdXXC-1" value="&lt;h1 style=&quot;margin-top: 0px;&quot;&gt;RL&lt;/h1&gt;&lt;p&gt;xxxxxx&lt;/p&gt;" style="text;html=1;whiteSpace=wrap;overflow=hidden;rounded=0;" vertex="1" parent="1">
          <mxGeometry x="30" y="130" width="180" height="120" as="geometry" />
        </mxCell>
        <mxCell id="PtZ4-gDanL53ifQMdXXC-3" value="RL" style="swimlane;fontStyle=0;childLayout=stackLayout;horizontal=1;startSize=26;fillColor=none;horizontalStack=0;resizeParent=1;resizeParentMax=0;resizeLast=0;collapsible=1;marginBottom=0;html=1;" vertex="1" parent="1">
          <mxGeometry x="40" y="220" width="140" height="104" as="geometry" />
        </mxCell>
        <mxCell id="PtZ4-gDanL53ifQMdXXC-4" value="路径规划&lt;div&gt;&lt;br&gt;&lt;/div&gt;" style="text;strokeColor=none;fillColor=none;align=left;verticalAlign=top;spacingLeft=4;spacingRight=4;overflow=hidden;rotatable=0;points=[[0,0.5],[1,0.5]];portConstraint=eastwest;whiteSpace=wrap;html=1;" vertex="1" parent="PtZ4-gDanL53ifQMdXXC-3">
          <mxGeometry y="26" width="140" height="26" as="geometry" />
        </mxCell>
        <mxCell id="PtZ4-gDanL53ifQMdXXC-5" value="自动战斗" style="text;strokeColor=none;fillColor=none;align=left;verticalAlign=top;spacingLeft=4;spacingRight=4;overflow=hidden;rotatable=0;points=[[0,0.5],[1,0.5]];portConstraint=eastwest;whiteSpace=wrap;html=1;" vertex="1" parent="PtZ4-gDanL53ifQMdXXC-3">
          <mxGeometry y="52" width="140" height="26" as="geometry" />
        </mxCell>
        <mxCell id="PtZ4-gDanL53ifQMdXXC-6" value="大世界性能检测？" style="text;strokeColor=none;fillColor=none;align=left;verticalAlign=top;spacingLeft=4;spacingRight=4;overflow=hidden;rotatable=0;points=[[0,0.5],[1,0.5]];portConstraint=eastwest;whiteSpace=wrap;html=1;" vertex="1" parent="PtZ4-gDanL53ifQMdXXC-3">
          <mxGeometry y="78" width="140" height="26" as="geometry" />
        </mxCell>
        <mxCell id="PtZ4-gDanL53ifQMdXXC-7" value="路径规划" style="swimlane;fontStyle=0;childLayout=stackLayout;horizontal=1;startSize=26;fillColor=none;horizontalStack=0;resizeParent=1;resizeParentMax=0;resizeLast=0;collapsible=1;marginBottom=0;html=1;" vertex="1" parent="1">
          <mxGeometry x="190" y="60" width="140" height="104" as="geometry" />
        </mxCell>
        <mxCell id="PtZ4-gDanL53ifQMdXXC-8" value="&lt;a href=&quot;https://en.wikipedia.org/wiki/Waypoint&quot;&gt;waypoint&lt;/a&gt;" style="text;strokeColor=none;fillColor=none;align=left;verticalAlign=top;spacingLeft=4;spacingRight=4;overflow=hidden;rotatable=0;points=[[0,0.5],[1,0.5]];portConstraint=eastwest;whiteSpace=wrap;html=1;" vertex="1" parent="PtZ4-gDanL53ifQMdXXC-7">
          <mxGeometry y="26" width="140" height="26" as="geometry" />
        </mxCell>
        <mxCell id="PtZ4-gDanL53ifQMdXXC-13" style="edgeStyle=orthogonalEdgeStyle;rounded=0;orthogonalLoop=1;jettySize=auto;html=1;" edge="1" parent="PtZ4-gDanL53ifQMdXXC-7" source="PtZ4-gDanL53ifQMdXXC-9">
          <mxGeometry relative="1" as="geometry">
            <mxPoint x="190" y="65" as="targetPoint" />
          </mxGeometry>
        </mxCell>
        <mxCell id="PtZ4-gDanL53ifQMdXXC-9" value="&lt;a href=&quot;https://en.wikipedia.org/wiki/Navigation_mesh&quot;&gt;NavigationMesh&lt;/a&gt;" style="text;strokeColor=none;fillColor=none;align=left;verticalAlign=top;spacingLeft=4;spacingRight=4;overflow=hidden;rotatable=0;points=[[0,0.5],[1,0.5]];portConstraint=eastwest;whiteSpace=wrap;html=1;" vertex="1" parent="PtZ4-gDanL53ifQMdXXC-7">
          <mxGeometry y="52" width="140" height="26" as="geometry" />
        </mxCell>
        <mxCell id="PtZ4-gDanL53ifQMdXXC-10" value="path planning" style="text;strokeColor=none;fillColor=none;align=left;verticalAlign=top;spacingLeft=4;spacingRight=4;overflow=hidden;rotatable=0;points=[[0,0.5],[1,0.5]];portConstraint=eastwest;whiteSpace=wrap;html=1;" vertex="1" parent="PtZ4-gDanL53ifQMdXXC-7">
          <mxGeometry y="78" width="140" height="26" as="geometry" />
        </mxCell>
        <mxCell id="PtZ4-gDanL53ifQMdXXC-14" value="&lt;ul&gt;&lt;li&gt;&lt;a href=&quot;https://www.youtube.com/watch?v=CHV1ymlw-P8&amp;amp;ab_channel=Brackeys&quot;&gt;unity tutorial&lt;/a&gt;&lt;/li&gt;&lt;li&gt;适用于地面移动，无法解决飞行、攀爬问题；&lt;/li&gt;&lt;li&gt;解决飞行只能通过NavLink，设定好后不可修改&lt;/li&gt;&lt;/ul&gt;" style="text;html=1;align=left;verticalAlign=middle;whiteSpace=wrap;rounded=0;" vertex="1" parent="1">
          <mxGeometry x="384" y="110" width="296" height="30" as="geometry" />
        </mxCell>
        <mxCell id="PtZ4-gDanL53ifQMdXXC-15" value="&lt;ul&gt;&lt;li&gt;Any-Angle Path Planning&lt;/li&gt;&lt;li&gt;Conference of Game(&lt;a href=&quot;https://ieee-cog.org/2022/&quot;&gt;CoG&lt;/a&gt;）&lt;/li&gt;&lt;li&gt;ubisoft - Deep Reinforcement Learning for Navigation in AAA Video Games&lt;/li&gt;&lt;/ul&gt;" style="text;html=1;align=left;verticalAlign=middle;whiteSpace=wrap;rounded=0;" vertex="1" parent="1">
          <mxGeometry x="384" y="164" width="456" height="30" as="geometry" />
        </mxCell>
        <mxCell id="PtZ4-gDanL53ifQMdXXC-16" style="edgeStyle=orthogonalEdgeStyle;rounded=0;orthogonalLoop=1;jettySize=auto;html=1;" edge="1" parent="1" source="PtZ4-gDanL53ifQMdXXC-10" target="PtZ4-gDanL53ifQMdXXC-15">
          <mxGeometry relative="1" as="geometry" />
        </mxCell>
      </root>
    </mxGraphModel>
  </diagram>
</mxfile>
